# xmcd
#
# Track frame offsets: 
#        150
#        11637
#        24690
#        37392
#        50061
#        55512
#        70263
#        82120
#        96258
#        104920
#        116403
#        133799
#
# Disc length: 1919 seconds
#
# Revision: 2
# Processed by: cddbd v1.5.2PL0 Copyright (c) Steve Scherf et al.
# Submitted via: ExactAudioCopy v0.99pb5
#
DISCID=b1077d0c
DTITLE=Various Artist - ADD SOME MUSIC TO YOUR DAY
DYEAR=1900
DGENRE=
TTITLE0=Wendy
TTITLE1=Don't Worry Baby
TTITLE2=Help Me Rhonda
TTITLE3=Car Crazy Cutie
TTITLE4=And Your Dreams Come True
TTITLE5=Your Summer Dream
TTITLE6=Semi-Detached, Suburban Mr. James
TTITLE7=Sincearly
TTITLE8=Why Do Fools Fall In Love
TTITLE9=Crazy Word's. Crazy Tune
TTITLE10=Love's Made A Fool Of You
TTITLE11=Devoted To You
EXTD=
EXTT0=
EXTT1=
EXTT2=
EXTT3=
EXTT4=
EXTT5=
EXTT6=
EXTT7=
EXTT8=
EXTT9=
EXTT10=
EXTT11=
PLAYORDER=
